<?xml version="1.0" encoding="UTF-8" standalone="no"?>
<!-- Created with Inkscape (http://www.inkscape.org/) -->

<svg
   width="57.598366mm"
   height="7.6687579mm"
   viewBox="0 0 57.598366 7.6687579"
   version="1.1"
   id="svg5"
   inkscape:version="1.2 (dc2aedaf03, 2022-05-15)"
   sodipodi:docname="logo.svg"
   xmlns:inkscape="http://www.inkscape.org/namespaces/inkscape"
   xmlns:sodipodi="http://sodipodi.sourceforge.net/DTD/sodipodi-0.dtd"
   xmlns="http://www.w3.org/2000/svg"
   xmlns:svg="http://www.w3.org/2000/svg">
  <sodipodi:namedview
     id="namedview7"
     pagecolor="#ffffff"
     bordercolor="#666666"
     borderopacity="1.0"
     inkscape:showpageshadow="2"
     inkscape:pageopacity="0.0"
     inkscape:pagecheckerboard="0"
     inkscape:deskcolor="#d1d1d1"
     inkscape:document-units="mm"
     showgrid="false"
     inkscape:zoom="0.76880612"
     inkscape:cx="87.14811"
     inkscape:cy="128.77109"
     inkscape:window-width="2560"
     inkscape:window-height="1377"
     inkscape:window-x="1912"
     inkscape:window-y="-8"
     inkscape:window-maximized="1"
     inkscape:current-layer="layer1" />
  <defs
     id="defs2" />
  <g
     inkscape:label="Layer 1"
     inkscape:groupmode="layer"
     id="layer1"
     transform="translate(-81.94247,-59.861828)">
    <path
       d="m 84.608965,67.530586 q -0.816485,0 -1.421097,-0.335896 -0.599445,-0.341063 -0.925006,-0.971514 -0.320392,-0.63045 -0.320392,-1.493444 v -2.061883 q 0,-0.862993 0.320392,-1.493444 0.325561,-0.635618 0.925006,-0.971514 0.604612,-0.341063 1.421097,-0.341063 0.676959,0 1.224727,0.289387 0.552937,0.289387 0.91467,0.837155 0.366902,0.542601 0.50126,1.28674 v 0 h -1.271236 v 0 q -0.09302,-0.361734 -0.294555,-0.630451 -0.201537,-0.273884 -0.480589,-0.418578 -0.273884,-0.144693 -0.594277,-0.144693 -0.428913,0 -0.744138,0.19637 -0.310058,0.191202 -0.48059,0.547768 -0.165364,0.356566 -0.165364,0.842323 v 2.061883 q 0,0.48059 0.165364,0.837156 0.170532,0.356566 0.48059,0.547768 0.315225,0.191202 0.744138,0.191202 0.32556,0 0.599445,-0.134358 0.279051,-0.139526 0.480589,-0.408242 0.201537,-0.268717 0.289387,-0.645954 v 0 h 1.271236 v 0 q -0.134358,0.744139 -0.50126,1.286739 -0.366901,0.542601 -0.91467,0.837156 -0.547768,0.289387 -1.224727,0.289387 z"
       style="font-size:10.5833px;fill:#ffffff;stroke-width:0.264583"
       id="path386" />
    <path
       d="m 89.053124,63.169109 h 2.588981 q 0.258381,0 0.454751,-0.124023 0.201538,-0.129191 0.310058,-0.361734 0.10852,-0.237711 0.113688,-0.542601 v 0 q 0,-0.30489 -0.10852,-0.537433 -0.108521,-0.232543 -0.310058,-0.356566 -0.19637,-0.129191 -0.459919,-0.129191 h -2.588981 v -1.183386 h 2.625155 q 0.635618,0 1.116207,0.273884 0.485757,0.273884 0.749306,0.775144 0.263549,0.50126 0.263549,1.157548 v 0 q 0,0.661456 -0.268717,1.162716 -0.263549,0.50126 -0.749306,0.775144 -0.480589,0.273885 -1.111039,0.273885 h -2.625155 z m -0.511595,-3.234934 h 1.235063 v 7.518897 h -1.235063 z m 2.325432,4.185777 1.281572,-0.237711 1.974033,3.570831 h -1.483109 z"
       style="font-size:10.5833px;fill:#ffffff;stroke-width:0.264583"
       id="path388" />
    <path
       d="m 97.770911,67.530586 q -0.800983,0 -1.410763,-0.341063 -0.60978,-0.346231 -0.945675,-0.971514 -0.335896,-0.630451 -0.335896,-1.457271 v -2.129062 q 0,-0.82682 0.335896,-1.452103 0.335895,-0.630451 0.945675,-0.971514 0.60978,-0.346231 1.410763,-0.346231 0.800982,0 1.410762,0.346231 0.614947,0.341063 0.945677,0.971514 0.33589,0.625283 0.33589,1.452103 v 2.129062 q 0,0.82682 -0.33589,1.457271 -0.33073,0.625283 -0.945677,0.971514 -0.60978,0.341063 -1.410762,0.341063 z m 0,-1.229895 q 0.423745,0 0.744138,-0.186035 0.32556,-0.186034 0.50126,-0.527098 0.175699,-0.341063 0.175699,-0.790647 v -2.201409 q 0,-0.449583 -0.175699,-0.790646 -0.1757,-0.346231 -0.50126,-0.532266 -0.320393,-0.186035 -0.744138,-0.186035 -0.423746,0 -0.744139,0.186035 -0.320393,0.186035 -0.496092,0.532266 -0.175699,0.341063 -0.175699,0.790646 v 2.201409 q 0,0.449584 0.175699,0.790647 0.175699,0.341064 0.496092,0.527098 0.320393,0.186035 0.744139,0.186035 z"
       style="font-size:10.5833px;fill:#ffffff;stroke-width:0.264583"
       id="path390" />
    <path
       d="m 102.55613,63.355144 h 2.40295 q 0.29972,0 0.52193,-0.139526 0.22737,-0.139526 0.3514,-0.39274 0.12919,-0.253214 0.12919,-0.578774 v 0 q 0,-0.335896 -0.12402,-0.58911 -0.12403,-0.253213 -0.3514,-0.392739 -0.22738,-0.139526 -0.5271,-0.139526 h -2.40295 v -1.183387 h 2.36678 q 0.68729,0 1.20922,0.289387 0.5271,0.28422 0.81132,0.80615 0.28938,0.52193 0.28938,1.209225 v 0 q 0,0.687294 -0.28938,1.209224 -0.28422,0.516763 -0.81132,0.800983 -0.52193,0.284219 -1.20922,0.284219 h -2.36678 z m -0.59427,-3.415802 h 1.23506 v 7.51373 h -1.23506 z"
       style="font-size:10.5833px;fill:#ffffff;stroke-width:0.264583"
       id="path392" />
    <path
       d="m 113.79055,63.329305 v 1.390092 q 0,0.837156 -0.33073,1.477941 -0.33072,0.635618 -0.9405,0.987017 -0.60978,0.346231 -1.41077,0.346231 -0.80615,0 -1.42109,-0.32556 -0.61495,-0.330729 -0.95601,-0.930173 -0.3359,-0.599445 -0.3359,-1.390092 v -2.216912 q 0,-0.837155 0.33073,-1.472773 0.33589,-0.635619 0.94051,-0.98185 0.60978,-0.351398 1.41076,-0.351398 0.66146,0 1.21439,0.279052 0.5581,0.273884 0.93017,0.780311 0.37724,0.506428 0.50643,1.173052 v 0 h -1.33325 v 0 q -0.0879,-0.310058 -0.28938,-0.532266 -0.19637,-0.222208 -0.47026,-0.335896 -0.26871,-0.118855 -0.5581,-0.118855 -0.41858,0 -0.73897,0.19637 -0.32039,0.191202 -0.49609,0.547768 -0.17054,0.351399 -0.17054,0.816485 v 2.216912 q 0,0.418578 0.1757,0.733803 0.18087,0.315225 0.50643,0.490925 0.32556,0.170531 0.75447,0.170531 0.42375,0 0.74414,-0.180867 0.3204,-0.186034 0.49093,-0.532265 0.1757,-0.351399 0.1757,-0.82682 v -0.227376 h -1.33325 v -1.183387 z"
       style="font-size:10.5833px;fill:#88f3ff;stroke-width:0.264583;fill-opacity:1"
       id="path394" />
    <path
       d="m 115.28916,59.939342 h 1.23507 v 7.51373 h -1.23507 z m 0.5116,6.330343 h 4.41832 v 1.183387 h -4.41832 z m 0,-3.141917 h 3.84988 v 1.183387 h -3.84988 z m 0,-3.188426 h 4.41832 v 1.183387 h -4.41832 z"
       style="font-size:10.5833px;fill:#88f3ff;stroke-width:0.264583;fill-opacity:1"
       id="path396" />
    <path
       d="m 121.61434,59.939342 h 1.23506 v 7.51373 h -1.23506 z m 0.5116,6.330343 h 4.41832 v 1.183387 h -4.41832 z m 0,-3.141917 h 3.84988 v 1.183387 h -3.84988 z m 0,-3.188426 h 4.41832 v 1.183387 h -4.41832 z"
       style="font-size:10.5833px;fill:#88f3ff;stroke-width:0.264583;fill-opacity:1"
       id="path398" />
    <path
       d="m 128.78184,64.336993 3.16259,-4.397651 h 1.53995 l -4.69221,6.108135 z m -0.84232,-4.397651 h 1.23506 v 7.51373 h -1.23506 z m 2.09289,3.607004 1.02319,-0.769977 2.74401,4.676703 h -1.48311 z"
       style="font-size:10.5833px;fill:#88f3ff;stroke-width:0.264583;fill-opacity:1"
       id="path400" />
    <path
       d="m 136.72965,67.530586 q -0.53744,0 -1.0387,-0.103353 -0.50126,-0.10852 -0.9405,-0.315225 -0.43408,-0.211872 -0.79582,-0.511595 v 0 l 0.65629,-0.987017 v 0 q 0.43408,0.361734 0.97668,0.552937 0.5426,0.191202 1.14205,0.191202 0.75447,0 1.16788,-0.268717 0.41858,-0.268716 0.41858,-0.759641 v -0.0052 q 0,-0.346231 -0.18604,-0.547768 -0.18603,-0.206705 -0.48575,-0.299722 -0.29973,-0.09819 -0.76998,-0.180867 -0.0155,-0.0052 -0.031,-0.0052 -0.0155,0 -0.031,-0.0052 l -0.093,-0.0155 q -0.75447,-0.124024 -1.24023,-0.294555 -0.48576,-0.170532 -0.82682,-0.60978 -0.34106,-0.439248 -0.34106,-1.245398 v -0.0052 q 0,-0.713132 0.32039,-1.21956 0.32039,-0.506427 0.93017,-0.769976 0.60978,-0.263549 1.46761,-0.263549 0.40307,0 0.80615,0.09302 0.40824,0.08785 0.80098,0.263549 0.39274,0.170532 0.75448,0.428913 v 0 l -0.59945,1.018023 v 0 q -0.42891,-0.310058 -0.8785,-0.470254 -0.44958,-0.160197 -0.88366,-0.160197 -0.70797,0 -1.1007,0.263549 -0.39274,0.258381 -0.39274,0.733803 v 0.0052 q 0,0.356566 0.20153,0.563271 0.20671,0.201537 0.50643,0.299722 0.29972,0.09819 0.84232,0.201538 0.0207,0.0052 0.0362,0.01033 0.0207,0 0.0413,0.0052 0.031,0.0052 0.0568,0.0155 0.031,0.0052 0.062,0.01033 0.69763,0.139526 1.16272,0.335896 0.47025,0.191202 0.78031,0.625282 0.31523,0.434081 0.31523,1.188555 v 0.01033 q 0,0.702797 -0.33073,1.204057 -0.33073,0.496092 -0.96118,0.759641 -0.63045,0.263549 -1.51928,0.263549 z"
       style="font-size:10.5833px;fill:#88f3ff;stroke-width:0.264583;fill-opacity:1"
       id="path402" />
  </g>
</svg>
