<?xml version="1.0" standalone="no"?>
<!DOCTYPE svg PUBLIC "-//W3C//DTD SVG 20010904//EN"
 "http://www.w3.org/TR/2001/REC-SVG-20010904/DTD/svg10.dtd">
<svg version="1.0" xmlns="http://www.w3.org/2000/svg"
 width="700.000000pt" height="700.000000pt" viewBox="0 0 700.000000 700.000000"
 preserveAspectRatio="xMidYMid meet">
<metadata>
Created by potrace 1.14, written by Peter Selinger 2001-2017
</metadata>
<g transform="translate(0.000000,700.000000) scale(0.100000,-0.100000)"
fill="#000000" stroke="none">
<path d="M0 5716 l0 -1284 63 -6 c34 -3 139 -13 232 -21 1229 -112 2443 -437
3630 -970 216 -98 685 -336 945 -480 582 -324 1013 -527 1543 -724 177 -66
568 -201 583 -201 2 0 3 606 2 1347 l-3 1347 -80 24 c-856 252 -1623 575
-2430 1022 -1076 597 -2022 960 -3108 1194 l-167 36 -605 0 -605 0 0 -1284z"/>
<path d="M4376 6861 c154 -77 394 -204 534 -281 529 -294 996 -512 1512 -706
128 -49 556 -194 570 -194 4 0 8 297 8 660 l0 660 -1451 0 -1452 0 279 -139z"/>
<path d="M0 1756 l0 -1756 1370 0 1370 0 -2 1468 -3 1467 -185 63 c-714 243
-1502 412 -2265 487 -88 8 -188 18 -222 21 l-63 6 0 -1756z"/>
<path d="M3810 1241 l0 -1241 1595 0 1595 0 0 538 0 538 -147 44 c-82 24 -260
81 -398 127 -700 236 -1290 498 -1985 883 -140 78 -346 189 -457 247 l-203
105 0 -1241z"/>
</g>
</svg>
